PathFileType	4	(X/Y/Z)	pose_F01_0-96.trc
DataRate	CameraRate	NumFrames	NumMarkers	Units	OrigDataRate	OrigDataStartFrame	OrigNumFrames
30	30	11	21	m	30	24	96
Frame#	Time	CHip			RHip			RKnee			RAnkle			RBigToe			RSmallToe			RHeel			LHip			LKnee			LAnkle			LBigToe			LSmallToe			LHeel			Neck			Nose			RShoulder			RElbow			RWrist			LShoulder			LElbow			LWrist			
		X1	Y1	Z1	X2	Y2	Z2	X3	Y3	Z3	X4	Y4	Z4	X5	Y5	Z5	X6	Y6	Z6	X7	Y7	Z7	X8	Y8	Z8	X9	Y9	Z9	X10	Y10	Z10	X11	Y11	Z11	X12	Y12	Z12	X13	Y13	Z13	X14	Y14	Z14	X15	Y15	Z15	X16	Y16	Z16	X17	Y17	Z17	X18	Y18	Z18	X19	Y19	Z19	X20	Y20	Z20	X21	Y21	Z21	
24	0.8	-0.18608679605636413	1.8239184605433563	-0.5117532214000258	-0.19747716495510742	1.8214522567207756	-0.4497795897773203	-0.18713528397578214	1.694880190577969	-0.4459286992716934													-0.17239340161442768	1.8241914718283265	-0.5702592376528743	-0.1672185118238223	1.6939762419768505	-0.5349834226311614	-0.1703704127119955	1.5684391919090717	-0.5125047629562347	-0.2087696804925926	1.5363350788495362	-0.5392251577812472	-0.19735334187740075	1.54440639274952	-0.5509866976947103	-0.16640755505959734	1.5582037004396438	-0.5107719531151804	-0.1715973927299893	1.9771952673389226	-0.5227413630576305	-0.19474647290113692	2.0419986687201312	-0.5521366847910391	-0.1913622972134051	1.9737331046553734	-0.44373513606830833	-0.20642116655637635	1.8906853442793554	-0.42240879397192804	-0.2240940526409104	1.8188252085385879	-0.41462459265793833	-1.7254566474693558	1.8895446475254316	1.1350989843557486	-0.13101233839884546	1.9050953392776229	-0.6282444361060414	-0.15943600846860004	1.8349141105401197	-0.6192635691453939
25	0.8333333333333334	-0.18859534717873125	1.8244697159792977	-0.518320833147405	-0.20117411559694473	1.8223965243198317	-0.45974112316371607	-0.1883942177243243	1.696477293440813	-0.4491815683274893													-0.17105229567832034	1.825374500206771	-0.5728042122342037	-0.1673209605325502	1.6967003962933132	-0.5353398634926262	-0.1686292059667738	1.567285956432966	-0.514154816891638	-0.20668734929875382	1.5360338953336214	-0.5413883101858455	-0.1975919383453166	1.542815861381406	-0.5504189229190682	-0.16441682382707123	1.5584823056389983	-0.5130245701719378	-0.1715863462803772	1.97739380529129	-0.522774722863888	-0.1956167601173872	2.041896094890159	-0.5552517505825733	-0.19132290885301065	1.976187765552917	-0.4442044661443392	-0.20424911984553767	1.891359684184089	-0.41591910286019473	-0.22486204945084032	1.8188668992387738	-0.41806998795223027	-1.7254875306903077	1.889777597857534	1.1350811331583555	-0.13169406452043872	1.9088789506136783	-0.6319655668756011	-0.3663746734855881	1.836810080781008	-0.43934651847174333
26	0.8666666666666667	-0.18774378450714432	1.8223894752558603	-0.5147629190739337	-0.19832368866527367	1.8202328408473591	-0.4582169912901344	-0.1903247664002219	1.696346247221733	-0.4469911978768454													-0.17315330181454197	1.8230255432350864	-0.570073653293253	-0.16847272379278358	1.6956770704214996	-0.5382231026322173	-0.1705958694454002	1.567029751548615	-0.5119520935322467	-0.20867748626179736	1.53556981796177	-0.5391916247277267	-0.19719075079897277	1.542923258188697	-0.5512478633109383	-0.16444203491693532	1.558513409247883	-0.5129834991622176	-0.1715378603354245	1.9784332972578	-0.5226458248491062	-0.19751647201176084	2.0411507257972423	-0.5616687836267461	-0.19234305441493094	1.9746906433723814	-0.4388063631265294	-0.20457366900064622	1.8888820114964382	-0.41555913954666657	-0.22455891964871952	1.8208064649603657	-0.414519115882989	-1.7160693477349525	1.8898053946132378	1.1182421026083207	-0.13225206428011863	1.9230641654736067	-0.6357752609805105	-0.5733133385025762	1.838706051021896	-0.25942946779809267
27	0.9	-0.19020936599570026	1.829889606906686	-0.5168815748483384	-0.19913168486928445	1.827551196882414	-0.46263155161895164	-0.1906017846247905	1.6984072876722582	-0.4469665147618808													-0.17490054951864833	1.8306207790489923	-0.5689650754842018	-0.16819370700095534	1.699415481780363	-0.5389242720096968	-0.17034298327059846	1.5654013264575695	-0.5122687874103076	-0.20999573524854862	1.5345029631201457	-0.5417560582465168	-0.19749837074124574	1.541699938572989	-0.5506914736122832	-0.16428626297196824	1.5573545051426454	-0.5133072789625244	-0.17244366386372054	1.978654436927917	-0.5257122574148547	-0.19847834371137563	2.0410899225902663	-0.5649109916429034	-0.19141992128280574	1.974984979335785	-0.4441574355196338	-0.20335154137744632	1.8922672526838704	-0.4128879422755603	-0.2242392916183223	1.8254136425996015	-0.4155288235541564	-1.6958244913625038	1.8897504200252215	1.0828111802348441	-0.14290571176907815	1.9245523401782727	-0.6462096566054053	-0.7802520035195643	1.8406020212627843	-0.07951241712444201
28	0.9333333333333333	-0.18918769020119838	1.8280837913158214	-0.5136145091705346	-0.19977533893549193	1.8270011409149363	-0.4573046496012062	-0.1901909217058901	1.7010942996880936	-0.44775665505606665													-0.17474922247883282	1.8287499706286403	-0.5687784063499872	-0.1679015323380668	1.7000979636419107	-0.5393350241833081	-0.17035502001871483	1.5684492944298707	-0.512531123979464	-0.20655338126076978	1.5354547415476116	-0.5413757951267965	-0.19704951054217004	1.542718827449324	-0.5513594236700695	-0.1660779269572985	1.559256570294616	-0.5113631305517594	-0.1744035724037612	1.9784546326331398	-0.5236148748830579	-0.19939132719636238	2.0409115043227364	-0.5678465175630035	-0.193262970405524	1.973627578372017	-0.4415933458668176	-0.20165944042093714	1.8931726288247657	-0.41524082086963726	-0.22270244488293567	1.827562247846218	-0.40927117329739676	-1.6953207203394334	1.8898080089696763	1.0818943070008369	-0.15137798961733007	1.9275934861334385	-0.6583219040452597	-0.9871906685365524	1.8424979915036723	0.10040463354920859
29	0.9666666666666667	-0.19047216972838052	1.8257536158092822	-0.5163814358816754	-0.2011395759621457	1.824517548716253	-0.4601652699974566	-0.18920461974163147	1.698465499570203	-0.4439491504640725													-0.17583705564765564	1.8280788966243737	-0.5717359647870347	-0.1699622769120116	1.6976746769176516	-0.5367444432817986	-0.16863210140466725	1.5670521106438835	-0.5141933560921744	-0.21208004433325506	1.5343206630890216	-0.539619905964951	-0.20029318495104725	1.5402300425437707	-0.5520336209219305	-0.16423904719124202	1.5576052378439735	-0.5130537376966129	-0.17536554687341033	1.9787279560013717	-0.5268195026166649	-0.19951065809407956	2.039188564261501	-0.5675836647078663	-0.19411051695806764	1.9748403903661382	-0.4449115486639816	-0.204493247191674	1.8911861269642463	-0.41606098251479784	-0.22343786125551246	1.8241220187084077	-0.41204188975251	-0.1552642746071513	1.9837035000577043	-0.6117904857394332	-0.16274133544967634	1.935419615713084	-0.6691637903995629	-1.1941293335535403	1.8443939617445606	0.28032168422285925
30	1.0	-0.19051093246692963	1.8279729106413807	-0.5168436978036852	-0.20207904369081067	1.8265561043146128	-0.46385273278779676	-0.18943222267783286	1.7000548833500464	-0.4529143163014438													-0.17791164675880267	1.8306678323536003	-0.5699478127016219	-0.1699779463041576	1.700439950468966	-0.5371983728863627	-0.17069746824011742	1.5673779483849375	-0.5120067645803915	-0.21026265638768457	1.5353322813290962	-0.5418479357469542	-0.19818074479354295	1.5395688743803204	-0.554556867655776	-0.16606737838882454	1.5591061446481607	-0.5114549823186295	-0.1754087638949176	1.9787614201761436	-0.5268110123765835	-0.2014788502972814	2.040164011376476	-0.5653642034670294	-0.19234461459567748	1.9737904968080655	-0.4470896698848396	-0.20343476195757362	1.8928848609532236	-0.4216100988048822	-0.22323816076563144	1.8246411408212286	-0.4121516749913253	-0.15739422850886858	1.9828835563926497	-0.609640999752148	-0.17164857057087762	1.934043181648775	-0.6803337217060328	-1.1625599817145476	1.8497959086008384	0.21999883294151623
31	1.0333333333333334	-0.1913438231694608	1.8269643382850724	-0.5198173710029272	-0.2030597649474696	1.8239559138393142	-0.46667249989064874	-0.1896223352246443	1.6982696030565243	-0.4524316491842056													-0.1809476767615564	1.8288540210262223	-0.570594996228132	-0.17033750995091307	1.698231492023885	-0.5452677584166549	-0.1706889405292757	1.5672264541360763	-0.5120383754669007	-0.21298863861204842	1.5334257202377561	-0.5432497259529437	-0.2002122289826536	1.539287068393674	-0.5524634711771151	-0.16452131808695517	1.5586816042103984	-0.5130475666377741	-0.17633441369001812	1.9791409165180305	-0.5300464080294585	-0.20229559164069033	2.041670635682676	-0.5681838043547504	-0.19429498518788182	1.9739217382181515	-0.4536161851048182	-0.20233359068307655	1.891505934665701	-0.4180701325949346	-0.2252446948659353	1.8235792829733772	-0.40977947311032337	-0.1573804994152534	1.9843850731722907	-0.6097142297486963	-0.17038163755234978	1.9355615211602972	-0.6861225889074765	-1.1439370473647275	1.842778622648478	0.18811878430632353
32	1.0666666666666667	-0.19349925880367913	1.8282066163413488	-0.5179213696875912	-0.2050858931626578	1.8259740245353657	-0.46488324767890216	-0.19042929743832154	1.6998640906079008	-0.45626011521875126													-0.1829019246367407	1.8304150923211147	-0.5772381819396122	-0.17218629800806745	1.6999347175093482	-0.543373177998702	-0.1686415147406238	1.5671951933165564	-0.5142083168326277	-0.2097567722166473	1.5329773935191935	-0.5421721402578688	-0.19798261237475917	1.5387948065377652	-0.5545509574720717	-0.16441103437670468	1.5582240049941383	-0.5130212324974563	-0.18018109474599522	1.9792766473985322	-0.5342579008329511	-0.2023200543690112	2.0421218867439355	-0.5682940539041401	-0.19817116430569298	1.9737245779672576	-0.4492458317249052	-0.20434366608712684	1.8927939019604199	-0.41611609782897196	-0.2254541342802251	1.8260448818650854	-0.4100721712495252	-0.15916969949102672	1.9836053874548805	-0.6158800914006751	-0.1691270371477849	1.934783124070018	-0.6914617677299989	-1.1133349180526282	1.838948425950656	0.13404961588059472
33	1.1	-0.19454979863316213	1.8298529590342196	-0.521344588947036	-0.20604560429243843	1.8261104638223635	-0.46819158514788106	-0.19277277240637164	1.6997543308428602	-0.45361819325792735													-0.1836438805927694	1.8318239821165958	-0.5807372158521263	-0.1702936387364442	1.7009469168240832	-0.5455781990900452	-0.1707316905551979	1.5674051765261399	-0.512024284380215	-0.20998338799510463	1.5336689058336566	-0.5421812963944356	-0.20011137945504512	1.5390462353900958	-0.552470082018514	-0.1663915689643441	1.5581017218802842	-0.5108665591863052	-1.7758286280177986	1.8895477487362535	1.218198356521864	-0.20588508640325506	2.0447464519468768	-0.581136471492115	-0.1982297296749307	1.9740330616236224	-0.4577579123533934	-0.2064885038275135	1.8917012392728467	-0.42267507840392826	-0.22365396937214643	1.8225884416609681	-0.4118079387886521	-0.16177506150807924	1.9835129230526498	-0.6255095452443412	-0.1644782461270755	1.9349663497347396	-0.6961348400004865	-1.1422664612430278	1.8558397140684433	0.17515262519462116
34	1.1333333333333333	-0.19265076490261349	1.8273394140240358	-0.5231982603439023	-0.20604942640011198	1.8235213396549035	-0.4679103523182888	-0.19329413880260385	1.6988569871602826	-0.45739373039336256													-0.1817938857978017	1.830353037063454	-0.5827989307032578	-0.1725185178661916	1.696456186944565	-0.5425873906403144	-0.17122438780919594	1.5676050250977835	-0.5111298881999199	-0.21202449739809645	1.5338784126452796	-0.539621524731855	-0.20050616597557955	1.538491622076874	-0.5514047341850966	-0.16472894276849961	1.5572067839926993	-0.5123790871645456	-1.775413718375922	1.8896016749104965	1.217423123953576	-0.20772743466597346	2.044712347648024	-0.5874402159007598	-0.19804817011585382	1.9777438315485678	-0.4584992553589987	-0.20756139791064773	1.8914398837050255	-0.4260313257673735	-0.22574101228394614	1.8213929647436964	-0.40949818805991123	-0.16259809486681384	1.9832698320694753	-0.6286522023806621	-0.16591042284123803	1.936417577247167	-0.7024377949103576	-1.1777864624200238	1.8614938191656882	0.2263659578692983
